<svg width="166" height="252" viewBox="0 0 166 252" fill="none" xmlns="http://www.w3.org/2000/svg">
<path d="M82.8201 190.855C82.6068 190.852 82.3975 190.797 82.21 190.695L0.600054 143.565C0.416041 143.459 0.263516 143.306 0.158099 143.121C0.0526815 142.937 -0.00185386 142.727 4.80994e-05 142.515V48.275C0.00951348 48.0717 0.0692813 47.8739 0.173998 47.6994C0.278715 47.5249 0.425115 47.3791 0.600054 47.275L82.21 0.165039C82.3952 0.0569732 82.6057 0 82.8201 0C83.0344 0 83.2449 0.0569732 83.43 0.165039L165.04 47.275C165.218 47.3764 165.367 47.5214 165.474 47.6963C165.581 47.8712 165.641 48.0703 165.65 48.275V142.515C165.652 142.729 165.596 142.939 165.489 143.124C165.382 143.308 165.227 143.461 165.04 143.565L83.43 190.695C83.2426 190.797 83.0333 190.852 82.8201 190.855ZM2.42003 141.855L82.8201 188.275L163.23 141.855V48.975L82.8201 2.56506L2.42003 48.975V141.855Z" fill="#8fb4ff4d"/>
<path d="M82.9801 96.725C82.7653 96.7231 82.5549 96.6644 82.3701 96.5551L0.760103 49.4351C0.481625 49.2746 0.278279 49.0101 0.194826 48.6997C0.111372 48.3893 0.154639 48.0585 0.315095 47.78C0.475551 47.5016 0.740044 47.2982 1.05042 47.2148C1.36079 47.1313 1.69162 47.1746 1.97009 47.335L83.5801 94.465C83.8584 94.6243 84.0622 94.8875 84.1465 95.1969C84.2309 95.5063 84.189 95.8365 84.0301 96.1151C83.9228 96.2989 83.7696 96.4517 83.5856 96.5587C83.4016 96.6656 83.1929 96.7229 82.9801 96.725Z" fill="#8fb4ff4d"/>
<path d="M82.77 96.595C82.5026 96.597 82.242 96.5102 82.0291 96.3483C81.8161 96.1865 81.6628 95.9586 81.5931 95.7004C81.5234 95.4422 81.5413 95.1681 81.6438 94.9211C81.7464 94.6741 81.9279 94.4679 82.1601 94.335L163.78 47.215C164.059 47.0546 164.389 47.0113 164.7 47.0948C165.01 47.1783 165.275 47.3816 165.435 47.66C165.596 47.9385 165.639 48.2693 165.555 48.5797C165.472 48.8901 165.269 49.1546 164.99 49.3151L83.3701 96.4351C83.1881 96.5415 82.9808 96.5967 82.77 96.595Z" fill="#8fb4ff4d"/>
<path d="M82.6901 190.515C82.3692 190.515 82.0614 190.388 81.8344 190.161C81.6075 189.934 81.48 189.626 81.48 189.305V95.095C81.48 94.7741 81.6075 94.4664 81.8344 94.2394C82.0614 94.0125 82.3692 93.8851 82.6901 93.8851C83.011 93.8851 83.3187 94.0125 83.5457 94.2394C83.7726 94.4664 83.9001 94.7741 83.9001 95.095V189.305C83.9001 189.626 83.7726 189.934 83.5457 190.161C83.3187 190.388 83.011 190.515 82.6901 190.515Z" fill="#8fb4ff4d"/>
<circle cx="14.5001" cy="124.455" r="2.5" fill="#d9d9d94d"/>
<circle cx="14.5001" cy="199.455" r="2.5" fill="#d9d9d94d"/>
<circle cx="14.5001" cy="149.455" r="2.5" fill="#d9d9d94d"/>
<circle cx="14.5001" cy="224.455" r="2.5" fill="#d9d9d94d"/>
<circle cx="14.5001" cy="174.455" r="2.5" fill="#d9d9d94d"/>
<circle cx="14.5001" cy="249.455" r="2.5" fill="#d9d9d94d"/>
<circle cx="39.5001" cy="124.455" r="2.5" fill="#d9d9d94d"/>
<circle cx="39.5001" cy="199.455" r="2.5" fill="#d9d9d94d"/>
<circle cx="39.5001" cy="149.455" r="2.5" fill="#d9d9d94d"/>
<circle cx="39.5001" cy="224.455" r="2.5" fill="#d9d9d94d"/>
<circle cx="39.5001" cy="174.455" r="2.5" fill="#d9d9d94d"/>
<circle cx="39.5001" cy="249.455" r="2.5" fill="#d9d9d94d"/>
<circle cx="64.5001" cy="124.455" r="2.5" fill="#d9d9d94d"/>
<circle cx="64.5001" cy="199.455" r="2.5" fill="#d9d9d94d"/>
<circle cx="64.5001" cy="149.455" r="2.5" fill="#d9d9d94d"/>
<circle cx="64.5001" cy="224.455" r="2.5" fill="#d9d9d94d"/>
<circle cx="64.5001" cy="174.455" r="2.5" fill="#d9d9d94d"/>
<circle cx="64.5001" cy="249.455" r="2.5" fill="#d9d9d94d"/>
</svg>
