<?xml version="1.0" encoding="UTF-8"?>
<svg id="Layer_2" data-name="Layer 2" xmlns="http://www.w3.org/2000/svg" viewBox="0 0 419.89 412.97">
  <defs>
    <style>
      .cls-1 {
        fill: #fff;
        stroke-width: 0px;
      }
    </style>
  </defs>
  <g id="Layer_1-2" data-name="Layer 1">
    <g id="kUzN2G">
      <path class="cls-1" d="m248.23,304.97c11.98-1.62,22.93-3.51,33.61-6.88,34.64-10.93,54.02-34.9,59.81-70.23,2.93-17.85,3.84-35.74-1.61-53.41-3.08-9.99-7.89-19.04-14.61-27-2.12-2.51-2.85-4.5-1.81-7.91,5.02-16.54,3.22-32.86-2.24-49.02-.97-2.86-2.69-3.43-5.24-3.39-7.95.11-15.43,2.29-22.72,5.19-9.77,3.88-18.9,9.01-27.58,14.9-2.43,1.65-4.52,1.89-7.39,1.18-32.27-8-64.59-8-96.86-.02-3.1.77-5.27.3-7.83-1.36-13.72-8.91-27.88-16.88-44.4-19.45-8.93-1.39-9.87-.92-12.3,7.6-4.33,15.19-5.26,30.46-.36,45.72.7,2.19.24,3.63-1.19,5.34-15.83,18.95-21.04,40.98-19.15,65.23,1.16,14.88,3.58,29.39,9.85,43.02,11.43,24.85,31.79,38.49,57.42,45.45,8.85,2.4,17.9,3.7,27.59,5.05-7.19,7.9-11.11,16.85-12.49,26.92-.3,2.16-2.27,2.29-3.7,2.87-23.88,9.62-44.01,3.04-57.62-18.72-6.89-11.01-16-19.05-29.19-21.59-2.85-.55-5.6-.52-8.39.26-5.05,1.41-5.74,3.85-2,7.69,1.38,1.42,2.91,2.8,4.61,3.8,10.69,6.24,18.29,15.53,22.12,26.85,8.21,24.26,31.61,34.51,56.81,32.35,4.31-.37,8.65-.78,12.85-1.72,3.03-.68,3.33.39,3.33,2.9,0,11.5.21,22.99.2,34.49,0,9.42-6.29,13.97-15.32,10.97-20.84-6.93-40.17-16.91-57.5-30.36C26.75,336.51-1.79,276.79.09,203.25,2.59,105.11,76.48,20.22,173.11,3.24c113.49-19.94,220.47,54.22,242.86,168.37,20.08,102.38-38.61,205.14-137.01,239.91-11.03,3.9-17.21-.41-17.17-12.01.07-18.16.16-36.32.26-54.48.08-14.69-2.71-28.43-13.82-40.06Z"/>
    </g>
  </g>
</svg>