<svg width="67" height="15" viewBox="0 0 67 15" fill="none" xmlns="http://www.w3.org/2000/svg">
<path d="M0.12 15V0.619999H11.54C12.0867 0.619999 12.58 0.753332 13.02 1.02C13.4733 1.28667 13.8333 1.64667 14.1 2.1C14.38 2.55333 14.52 3.04667 14.52 3.58V7.3C14.52 7.83333 14.38 8.32667 14.1 8.78C13.8333 9.23333 13.4733 9.59333 13.02 9.86C12.58 10.1267 12.0867 10.26 11.54 10.26L3.22 10.28V15H0.12ZM3.22 7.14H11.38V3.72H3.22V7.14ZM25.3056 15C24.7723 15 24.279 14.8667 23.8256 14.6C23.3723 14.3333 23.0123 13.9733 22.7456 13.52C22.479 13.0667 22.3456 12.5733 22.3456 12.04V3.56C22.3456 3.01333 22.479 2.52 22.7456 2.08C23.0123 1.62667 23.3723 1.26667 23.8256 0.999999C24.279 0.733333 24.7723 0.599999 25.3056 0.599999H33.7856C34.319 0.599999 34.8056 0.733333 35.2456 0.999999C35.699 1.26667 36.059 1.62667 36.3256 2.08C36.6056 2.52 36.7456 3.01333 36.7456 3.56V12.04C36.7456 12.5733 36.6056 13.0667 36.3256 13.52C36.059 13.9733 35.699 14.3333 35.2456 14.6C34.8056 14.8667 34.319 15 33.7856 15H25.3056ZM25.4456 11.88H33.6056V3.72H25.4456V11.88ZM50.2134 15L44.9734 0.599999H48.2734L51.4134 9.18L54.5534 0.599999H57.4134L60.5734 9.18L63.7134 0.599999H66.9934L61.7534 15H59.3734L55.9734 5.74L52.5934 15H50.2134Z" fill="#29A6B0"/>
</svg>
