<?xml version="1.0" encoding="UTF-8"?>
<svg id="Layer_2" data-name="Layer 2" xmlns="http://www.w3.org/2000/svg" viewBox="0 0 777.76 777.72">
  <defs>
    <style>
      .cls-1 {
        fill: #69C5F9;
        stroke-width: 0px;
      }
    </style>
  </defs>
  <g id="Layer_1" data-name="Layer 1">
    <g id="top-icon">
      <g>
        <path class="cls-1" d="m98.24,130.58c294.83-318.23,803.68-4.42,651.84,401.39-85.83,222.27-360.73,314.51-563.46,189.54C-20.2,597.92-63.12,309.33,98.24,130.58Zm73.9,454.05c87.33,98.42,236.06,124.67,351.92,62.66,197.34-104.67,209.37-382.5,21.48-503.55-176.81-112.73-411.07-8.02-444.82,199.01-14.5,85.9,12.65,177.32,71.28,241.73l.13.15Z"/>
        <path class="cls-1" d="m388.39,401.52c-16.01,15.67-31.85,31.47-47.95,47.04-13.38,13.85-27.66,29.2-48.48,28.95-28.34.6-51.97-25.25-49.4-53.31,1.88-14.02,9.02-25.72,19.5-35.1,16.58-15.85,32.76-31.79,48.93-47.99,29.41-24.78,59.45-77.24,103.9-52.45,26,19.77,46.84,47.61,70.95,70.41,23,25.18,63.34,52.61,43.36,91.11-14.21,30.36-57.92,36.47-79.85,11.09-19.36-19.93-38.37-39.88-57.83-59.8-.97-1.46-1.82-1.61-3.14.07Z"/>
      </g>
    </g>
  </g>
</svg>